<svg xmlns="http://www.w3.org/2000/svg" xmlns:xlink="http://www.w3.org/1999/xlink" width="500" zoomAndPan="magnify" viewBox="0 0 375 374.999991" height="500" preserveAspectRatio="xMidYMid meet" version="1.0"><defs><g/><clipPath id="617b769121"><path d="M 117 90.839844 L 171.75 90.839844 L 171.75 144 L 117 144 Z M 117 90.839844 " clip-rule="nonzero"/></clipPath><clipPath id="44d3217c81"><path d="M 38 117 L 165 117 L 165 284.238281 L 38 284.238281 Z M 38 117 " clip-rule="nonzero"/></clipPath></defs><g clip-path="url(#617b769121)"><path fill="#f68712" d="M 171.6875 104.839844 C 171.761719 105.207031 171.695312 105.589844 171.523438 105.980469 C 170.679688 107.875 167.195312 109.945312 163.496094 111.695312 C 162.828125 112.015625 162.148438 112.320312 161.476562 112.609375 C 157.273438 114.445312 153.371094 115.730469 153.371094 115.730469 L 152.828125 120.4375 L 154.765625 119.789062 C 155.566406 119.519531 156.433594 119.949219 156.703125 120.75 C 156.96875 121.546875 156.539062 122.414062 155.738281 122.679688 L 152.441406 123.785156 L 150.257812 142.769531 L 148.121094 143.339844 L 144.511719 130.253906 L 143.535156 126.703125 L 143.085938 126.855469 C 142.597656 127.019531 142.058594 126.929688 141.652344 126.621094 C 140.664062 125.871094 140.917969 124.324219 142.09375 123.929688 L 142.714844 123.722656 L 141.710938 120.074219 L 140.101562 120.660156 L 131.277344 123.875 L 127.601562 132.507812 L 127.085938 133.109375 L 126.273438 134.082031 L 126.105469 133.128906 L 124.160156 122.007812 L 117.25 113.082031 L 119.59375 113.003906 L 128.574219 117.058594 L 136.703125 113.832031 L 137.523438 113.507812 L 138.992188 112.925781 L 136.527344 108.875 L 135.34375 109.273438 C 134.859375 109.4375 134.320312 109.347656 133.914062 109.039062 C 132.925781 108.289062 133.179688 106.742188 134.355469 106.347656 L 134.878906 106.171875 L 126.050781 91.660156 L 127.898438 90.800781 L 144.0625 103.183594 C 144.164062 103.121094 144.273438 103.066406 144.390625 103.027344 L 148 101.816406 C 148.800781 101.546875 149.667969 101.976562 149.9375 102.777344 C 150.207031 103.578125 149.777344 104.441406 148.976562 104.710938 L 146.941406 105.390625 L 150.699219 108.269531 C 150.699219 108.269531 154.230469 106.871094 158.402344 105.574219 C 158.910156 105.417969 159.429688 105.257812 159.953125 105.105469 C 165.363281 103.53125 171.234375 102.421875 171.6875 104.839844 " fill-opacity="1" fill-rule="nonzero"/></g><g clip-path="url(#44d3217c81)"><path fill="#f68712" d="M 118.269531 130.625 C 118.269531 130.625 117.28125 131 115.421875 131.707031 C 113.53125 132.414062 110.925781 133.433594 107.570312 134.789062 C 104.222656 136.175781 100.152344 137.855469 95.621094 140 C 91.085938 142.132812 86.019531 144.640625 80.773438 147.742188 C 75.539062 150.851562 70.050781 154.5 64.914062 158.992188 C 59.808594 163.5 55.019531 168.808594 51.542969 175.171875 C 48.121094 181.40625 46.242188 188.832031 46.359375 196.453125 C 46.433594 200.273438 46.976562 204.140625 47.941406 207.953125 C 48.933594 211.761719 50.347656 215.503906 52.105469 219.113281 C 55.617188 226.335938 60.550781 232.941406 66.199219 238.683594 C 67.609375 240.121094 69.082031 241.492188 70.578125 242.824219 L 70.855469 243.078125 C 70.773438 243.011719 70.875 243.09375 70.875 243.09375 L 71.097656 243.28125 L 71.695312 243.769531 L 72.886719 244.753906 C 73.675781 245.40625 74.46875 246.058594 75.253906 246.707031 C 76.84375 247.894531 78.417969 249.074219 79.988281 250.242188 C 81.628906 251.351562 83.257812 252.453125 84.875 253.546875 C 91.449219 257.777344 98.179688 261.328125 104.722656 264.382812 C 105.539062 264.765625 106.351562 265.144531 107.15625 265.523438 C 107.976562 265.878906 108.785156 266.230469 109.589844 266.578125 C 111.207031 267.269531 112.78125 267.992188 114.367188 268.605469 C 115.949219 269.238281 117.503906 269.859375 119.03125 270.472656 C 120.574219 271.046875 122.085938 271.609375 123.570312 272.160156 C 125.046875 272.722656 126.515625 273.21875 127.949219 273.710938 C 129.382812 274.203125 130.777344 274.703125 132.152344 275.148438 C 134.902344 276.019531 137.5 276.902344 139.976562 277.617188 C 142.441406 278.363281 144.75 279.066406 146.902344 279.652344 C 149.050781 280.253906 151.023438 280.824219 152.816406 281.285156 C 154.605469 281.757812 156.207031 282.183594 157.597656 282.550781 C 158.992188 282.898438 160.179688 283.195312 161.144531 283.4375 C 163.070312 283.917969 164.097656 284.175781 164.097656 284.175781 C 164.097656 284.175781 163.058594 283.972656 161.109375 283.589844 C 160.132812 283.398438 158.933594 283.160156 157.519531 282.886719 C 156.109375 282.585938 154.492188 282.246094 152.675781 281.867188 C 150.855469 281.496094 148.859375 281.027344 146.675781 280.535156 C 144.488281 280.054688 142.144531 279.472656 139.632812 278.851562 C 137.113281 278.261719 134.464844 277.507812 131.65625 276.777344 C 130.253906 276.398438 128.828125 275.96875 127.359375 275.550781 C 125.894531 275.125 124.390625 274.703125 122.875 274.210938 C 121.355469 273.734375 119.800781 273.246094 118.214844 272.75 C 116.644531 272.210938 115.042969 271.660156 113.414062 271.105469 C 111.777344 270.566406 110.148438 269.917969 108.480469 269.304688 C 107.644531 268.992188 106.804688 268.675781 105.957031 268.359375 C 105.121094 268.019531 104.277344 267.675781 103.429688 267.328125 C 96.632812 264.570312 89.578125 261.304688 82.582031 257.292969 C 80.851562 256.25 79.109375 255.199219 77.355469 254.140625 C 75.632812 252.984375 73.898438 251.816406 72.152344 250.644531 C 71.332031 250.035156 70.507812 249.425781 69.683594 248.816406 L 68.445312 247.894531 L 67.824219 247.433594 L 67.460938 247.15625 L 67.152344 246.90625 C 65.492188 245.578125 63.855469 244.199219 62.273438 242.746094 C 55.941406 236.9375 50.238281 230.105469 45.9375 222.320312 C 43.789062 218.429688 41.980469 214.320312 40.628906 210.039062 C 39.300781 205.753906 38.433594 201.304688 38.117188 196.8125 C 37.507812 187.816406 39.261719 178.738281 43.074219 170.859375 C 43.566406 169.859375 44.082031 168.773438 44.546875 167.976562 L 45.261719 166.691406 L 45.351562 166.53125 L 45.394531 166.453125 C 45.347656 166.523438 45.507812 166.261719 45.511719 166.257812 L 45.722656 165.925781 L 46.152344 165.257812 C 46.726562 164.371094 47.296875 163.488281 47.867188 162.609375 C 48.441406 161.734375 49.097656 160.941406 49.710938 160.113281 C 52.160156 156.792969 54.921875 153.90625 57.660156 151.171875 C 63.214844 145.789062 69.035156 141.492188 74.527344 137.832031 C 80.039062 134.183594 85.28125 131.246094 89.960938 128.742188 C 94.640625 126.230469 98.796875 124.261719 102.214844 122.632812 C 105.65625 121.035156 108.414062 119.789062 110.203125 119.015625 C 112.019531 118.214844 112.992188 117.789062 112.992188 117.789062 L 118.269531 130.625 " fill-opacity="1" fill-rule="nonzero"/></g><g fill="#022179" fill-opacity="1"><g transform="translate(127.31782, 206.614863)"><g><path d="M 24.109375 -35.46875 L 38.171875 -6.40625 C 38.765625 -5.226562 39.0625 -4.34375 39.0625 -3.75 C 39.0625 -2.5 38.050781 -1.367188 36.03125 -0.359375 C 34.851562 0.222656 33.925781 0.515625 33.25 0.515625 C 32.570312 0.515625 32.015625 0.359375 31.578125 0.046875 C 31.148438 -0.265625 30.835938 -0.59375 30.640625 -0.9375 C 30.453125 -1.28125 30.1875 -1.800781 29.84375 -2.5 L 27.125 -8.125 L 12.703125 -8.125 L 10 -2.5 C 9.65625 -1.800781 9.382812 -1.296875 9.1875 -0.984375 C 9 -0.671875 8.6875 -0.347656 8.25 -0.015625 C 7.820312 0.304688 7.269531 0.46875 6.59375 0.46875 C 5.914062 0.46875 4.984375 0.171875 3.796875 -0.421875 C 1.785156 -1.390625 0.78125 -2.5 0.78125 -3.75 C 0.78125 -4.34375 1.078125 -5.226562 1.671875 -6.40625 L 15.734375 -35.515625 C 16.109375 -36.316406 16.6875 -36.957031 17.46875 -37.4375 C 18.25 -37.925781 19.078125 -38.171875 19.953125 -38.171875 C 21.828125 -38.171875 23.210938 -37.269531 24.109375 -35.46875 Z M 19.890625 -22.96875 L 16.453125 -15.828125 L 23.390625 -15.828125 Z M 19.890625 -22.96875 "/></g></g></g><g fill="#022179" fill-opacity="1"><g transform="translate(167.148556, 206.614863)"><g><path d="M 6.71875 -38.21875 L 16.359375 -38.171875 C 21.390625 -38.171875 25.8125 -36.351562 29.625 -32.71875 C 33.445312 -29.09375 35.359375 -24.632812 35.359375 -19.34375 C 35.359375 -14.050781 33.492188 -9.507812 29.765625 -5.71875 C 26.035156 -1.9375 21.515625 -0.046875 16.203125 -0.046875 L 6.671875 -0.046875 C 4.546875 -0.046875 3.222656 -0.484375 2.703125 -1.359375 C 2.285156 -2.085938 2.078125 -3.195312 2.078125 -4.6875 L 2.078125 -33.640625 C 2.078125 -34.472656 2.101562 -35.078125 2.15625 -35.453125 C 2.207031 -35.835938 2.375 -36.289062 2.65625 -36.8125 C 3.144531 -37.75 4.5 -38.21875 6.71875 -38.21875 Z M 16.359375 -9.265625 C 18.859375 -9.265625 21.113281 -10.191406 23.125 -12.046875 C 25.132812 -13.910156 26.140625 -16.25 26.140625 -19.0625 C 26.140625 -21.875 25.160156 -24.222656 23.203125 -26.109375 C 21.242188 -28.003906 18.941406 -28.953125 16.296875 -28.953125 L 11.296875 -28.953125 L 11.296875 -9.265625 Z M 16.359375 -9.265625 "/></g></g></g><g fill="#022179" fill-opacity="1"><g transform="translate(203.803247, 206.614863)"><g><path d="M 6.71875 -38.21875 L 16.359375 -38.171875 C 21.390625 -38.171875 25.8125 -36.351562 29.625 -32.71875 C 33.445312 -29.09375 35.359375 -24.632812 35.359375 -19.34375 C 35.359375 -14.050781 33.492188 -9.507812 29.765625 -5.71875 C 26.035156 -1.9375 21.515625 -0.046875 16.203125 -0.046875 L 6.671875 -0.046875 C 4.546875 -0.046875 3.222656 -0.484375 2.703125 -1.359375 C 2.285156 -2.085938 2.078125 -3.195312 2.078125 -4.6875 L 2.078125 -33.640625 C 2.078125 -34.472656 2.101562 -35.078125 2.15625 -35.453125 C 2.207031 -35.835938 2.375 -36.289062 2.65625 -36.8125 C 3.144531 -37.75 4.5 -38.21875 6.71875 -38.21875 Z M 16.359375 -9.265625 C 18.859375 -9.265625 21.113281 -10.191406 23.125 -12.046875 C 25.132812 -13.910156 26.140625 -16.25 26.140625 -19.0625 C 26.140625 -21.875 25.160156 -24.222656 23.203125 -26.109375 C 21.242188 -28.003906 18.941406 -28.953125 16.296875 -28.953125 L 11.296875 -28.953125 L 11.296875 -9.265625 Z M 16.359375 -9.265625 "/></g></g></g><g fill="#022179" fill-opacity="1"><g transform="translate(240.457939, 206.614863)"><g><path d="M 2.078125 -33.59375 C 2.078125 -34.382812 2.101562 -34.976562 2.15625 -35.375 C 2.207031 -35.78125 2.375 -36.242188 2.65625 -36.765625 C 3.144531 -37.703125 4.5 -38.171875 6.71875 -38.171875 C 9.144531 -38.171875 10.585938 -37.53125 11.046875 -36.25 C 11.210938 -35.65625 11.296875 -34.75 11.296875 -33.53125 L 11.296875 -4.578125 C 11.296875 -3.742188 11.269531 -3.132812 11.21875 -2.75 C 11.164062 -2.375 11.003906 -1.925781 10.734375 -1.40625 C 10.242188 -0.46875 8.890625 0 6.671875 0 C 4.234375 0 2.804688 -0.660156 2.390625 -1.984375 C 2.179688 -2.535156 2.078125 -3.421875 2.078125 -4.640625 Z M 2.078125 -33.59375 "/></g></g></g><g fill="#022179" fill-opacity="1"><g transform="translate(253.838988, 206.614863)"><g><path d="M 2.65625 -5.359375 C 1.75 -6.472656 1.296875 -7.472656 1.296875 -8.359375 C 1.296875 -9.242188 2.046875 -10.414062 3.546875 -11.875 C 4.410156 -12.707031 5.328125 -13.125 6.296875 -13.125 C 7.273438 -13.125 8.628906 -12.253906 10.359375 -10.515625 C 10.847656 -9.929688 11.539062 -9.367188 12.4375 -8.828125 C 13.34375 -8.285156 14.179688 -8.015625 14.953125 -8.015625 C 18.179688 -8.015625 19.796875 -9.335938 19.796875 -11.984375 C 19.796875 -12.773438 19.351562 -13.441406 18.46875 -13.984375 C 17.582031 -14.523438 16.476562 -14.914062 15.15625 -15.15625 C 13.832031 -15.394531 12.40625 -15.785156 10.875 -16.328125 C 9.351562 -16.867188 7.929688 -17.503906 6.609375 -18.234375 C 5.296875 -18.960938 4.195312 -20.113281 3.3125 -21.6875 C 2.425781 -23.269531 1.984375 -25.171875 1.984375 -27.390625 C 1.984375 -30.441406 3.117188 -33.101562 5.390625 -35.375 C 7.660156 -37.65625 10.757812 -38.796875 14.6875 -38.796875 C 16.769531 -38.796875 18.671875 -38.523438 20.390625 -37.984375 C 22.109375 -37.453125 23.296875 -36.90625 23.953125 -36.34375 L 25.265625 -35.359375 C 26.335938 -34.347656 26.875 -33.492188 26.875 -32.796875 C 26.875 -32.109375 26.457031 -31.15625 25.625 -29.9375 C 24.445312 -28.207031 23.234375 -27.34375 21.984375 -27.34375 C 21.253906 -27.34375 20.347656 -27.6875 19.265625 -28.375 C 19.160156 -28.445312 18.960938 -28.617188 18.671875 -28.890625 C 18.378906 -29.171875 18.109375 -29.398438 17.859375 -29.578125 C 17.128906 -30.023438 16.203125 -30.25 15.078125 -30.25 C 13.953125 -30.25 13.015625 -29.976562 12.265625 -29.4375 C 11.515625 -28.90625 11.140625 -28.160156 11.140625 -27.203125 C 11.140625 -26.253906 11.582031 -25.484375 12.46875 -24.890625 C 13.351562 -24.304688 14.457031 -23.910156 15.78125 -23.703125 C 17.101562 -23.492188 18.546875 -23.171875 20.109375 -22.734375 C 21.671875 -22.296875 23.109375 -21.765625 24.421875 -21.140625 C 25.742188 -20.515625 26.847656 -19.429688 27.734375 -17.890625 C 28.617188 -16.347656 29.0625 -14.445312 29.0625 -12.1875 C 29.0625 -9.925781 28.609375 -7.9375 27.703125 -6.21875 C 26.796875 -4.5 25.617188 -3.171875 24.171875 -2.234375 C 21.359375 -0.398438 18.351562 0.515625 15.15625 0.515625 C 13.519531 0.515625 11.972656 0.316406 10.515625 -0.078125 C 9.054688 -0.472656 7.878906 -0.96875 6.984375 -1.5625 C 5.140625 -2.675781 3.851562 -3.753906 3.125 -4.796875 Z M 2.65625 -5.359375 "/></g></g></g><g fill="#d87309" fill-opacity="1"><g transform="translate(92.977806, 236.893535)"><g><path d="M 5.078125 -12.6875 L 0.09375 -12.6875 L 0.09375 -15.0625 L 12.859375 -15.0625 L 12.859375 -12.6875 L 7.875 -12.6875 L 7.875 0 L 5.078125 0 Z M 5.078125 -12.6875 "/></g></g></g><g fill="#d87309" fill-opacity="1"><g transform="translate(123.144324, 236.893535)"><g><path d="M 11.875 0 L 8.796875 -4.40625 C 8.671875 -4.394531 8.476562 -4.390625 8.21875 -4.390625 L 4.8125 -4.390625 L 4.8125 0 L 2.015625 0 L 2.015625 -15.0625 L 8.21875 -15.0625 C 9.519531 -15.0625 10.65625 -14.84375 11.625 -14.40625 C 12.59375 -13.976562 13.332031 -13.363281 13.84375 -12.5625 C 14.363281 -11.757812 14.625 -10.804688 14.625 -9.703125 C 14.625 -8.566406 14.347656 -7.585938 13.796875 -6.765625 C 13.242188 -5.953125 12.453125 -5.347656 11.421875 -4.953125 L 14.890625 0 Z M 11.8125 -9.703125 C 11.8125 -10.660156 11.492188 -11.394531 10.859375 -11.90625 C 10.234375 -12.425781 9.3125 -12.6875 8.09375 -12.6875 L 4.8125 -12.6875 L 4.8125 -6.6875 L 8.09375 -6.6875 C 9.3125 -6.6875 10.234375 -6.945312 10.859375 -7.46875 C 11.492188 -8 11.8125 -8.742188 11.8125 -9.703125 Z M 11.8125 -9.703125 "/></g></g></g><g fill="#d87309" fill-opacity="1"><g transform="translate(156.086355, 236.893535)"><g><path d="M 11.796875 -3.484375 L 4.265625 -3.484375 L 2.78125 0 L -0.109375 0 L 6.671875 -15.0625 L 9.421875 -15.0625 L 16.21875 0 L 13.296875 0 Z M 10.859375 -5.6875 L 8.03125 -12.265625 L 5.203125 -5.6875 Z M 10.859375 -5.6875 "/></g></g></g><g fill="#d87309" fill-opacity="1"><g transform="translate(189.415662, 236.893535)"><g><path d="M 15.796875 -15.0625 L 9.234375 0 L 6.46875 0 L -0.109375 -15.0625 L 2.921875 -15.0625 L 7.9375 -3.4375 L 13 -15.0625 Z M 15.796875 -15.0625 "/></g></g></g><g fill="#d87309" fill-opacity="1"><g transform="translate(222.314665, 236.893535)"><g><path d="M 13.3125 -2.34375 L 13.3125 0 L 2.015625 0 L 2.015625 -15.0625 L 13.015625 -15.0625 L 13.015625 -12.71875 L 4.8125 -12.71875 L 4.8125 -8.796875 L 12.09375 -8.796875 L 12.09375 -6.5 L 4.8125 -6.5 L 4.8125 -2.34375 Z M 13.3125 -2.34375 "/></g></g></g><g fill="#d87309" fill-opacity="1"><g transform="translate(253.944245, 236.893535)"><g><path d="M 2.015625 -15.0625 L 4.8125 -15.0625 L 4.8125 -2.359375 L 12.6875 -2.359375 L 12.6875 0 L 2.015625 0 Z M 2.015625 -15.0625 "/></g></g></g></svg>